<?xml version="1.0" encoding="UTF-8" standalone="no"?>
<!-- Generator: Adobe Illustrator 16.0.4, SVG Export Plug-In . SVG Version: 6.00 Build 0)  -->

<svg
   xmlns:dc="http://purl.org/dc/elements/1.1/"
   xmlns:cc="http://creativecommons.org/ns#"
   xmlns:rdf="http://www.w3.org/1999/02/22-rdf-syntax-ns#"
   xmlns:svg="http://www.w3.org/2000/svg"
   xmlns="http://www.w3.org/2000/svg"
   xmlns:sodipodi="http://sodipodi.sourceforge.net/DTD/sodipodi-0.dtd"
   xmlns:inkscape="http://www.inkscape.org/namespaces/inkscape"
   version="1.1"
   id="Capa_1"
   x="0px"
   y="0px"
   width="216px"
   height="146px"
   viewBox="0 0 216 146"
   enable-background="new 0 0 216 146"
   xml:space="preserve"
   inkscape:version="0.48.3.1 r9886"
   sodipodi:docname="kanan.svg"><metadata
   id="metadata9"><rdf:RDF><cc:Work
       rdf:about=""><dc:format>image/svg+xml</dc:format><dc:type
         rdf:resource="http://purl.org/dc/dcmitype/StillImage" /></cc:Work></rdf:RDF></metadata><defs
   id="defs7" /><sodipodi:namedview
   pagecolor="#ffffff"
   bordercolor="#666666"
   borderopacity="1"
   objecttolerance="10"
   gridtolerance="10"
   guidetolerance="10"
   inkscape:pageopacity="0"
   inkscape:pageshadow="2"
   inkscape:window-width="640"
   inkscape:window-height="480"
   id="namedview5"
   showgrid="false"
   inkscape:zoom="1.5648148"
   inkscape:cx="108"
   inkscape:cy="73"
   inkscape:window-x="0"
   inkscape:window-y="32"
   inkscape:window-maximized="0"
   inkscape:current-layer="Capa_1" />
<path
   d="M144.988,65.667L91.869,12.628c-1.956-2.064-4.399-3.096-7.333-3.096s-5.377,1.033-7.333,3.096l-6.192,6.111  c-2.01,2.01-3.015,4.453-3.015,7.332c0,2.824,1.005,5.296,3.015,7.414L110.607,73L71.01,112.596c-2.01,2.01-3.015,4.454-3.015,7.333  c0,2.824,1.005,5.296,3.015,7.414l6.192,6.11c2.01,2.01,4.455,3.015,7.333,3.015c2.879,0,5.324-1.005,7.333-3.015l53.12-53.039  c2.01-2.118,3.016-4.59,3.016-7.414C148.004,70.121,146.998,67.677,144.988,65.667z"
   id="path3"
   style="fill:#91374b;fill-opacity:1" />
</svg>