<?xml version="1.0" encoding="UTF-8" standalone="no"?>
<!-- Generator: Adobe Illustrator 16.0.4, SVG Export Plug-In . SVG Version: 6.00 Build 0)  -->

<svg
   xmlns:dc="http://purl.org/dc/elements/1.1/"
   xmlns:cc="http://creativecommons.org/ns#"
   xmlns:rdf="http://www.w3.org/1999/02/22-rdf-syntax-ns#"
   xmlns:svg="http://www.w3.org/2000/svg"
   xmlns="http://www.w3.org/2000/svg"
   xmlns:sodipodi="http://sodipodi.sourceforge.net/DTD/sodipodi-0.dtd"
   xmlns:inkscape="http://www.inkscape.org/namespaces/inkscape"
   version="1.1"
   id="Capa_1"
   x="0px"
   y="0px"
   width="216px"
   height="146px"
   viewBox="0 0 216 146"
   enable-background="new 0 0 216 146"
   xml:space="preserve"
   inkscape:version="0.48.3.1 r9886"
   sodipodi:docname="kiri.svg"><metadata
   id="metadata9"><rdf:RDF><cc:Work
       rdf:about=""><dc:format>image/svg+xml</dc:format><dc:type
         rdf:resource="http://purl.org/dc/dcmitype/StillImage" /></cc:Work></rdf:RDF></metadata><defs
   id="defs7" /><sodipodi:namedview
   pagecolor="#ffffff"
   bordercolor="#666666"
   borderopacity="1"
   objecttolerance="10"
   gridtolerance="10"
   guidetolerance="10"
   inkscape:pageopacity="0"
   inkscape:pageshadow="2"
   inkscape:window-width="640"
   inkscape:window-height="480"
   id="namedview5"
   showgrid="false"
   inkscape:zoom="1.5648148"
   inkscape:cx="108"
   inkscape:cy="73"
   inkscape:window-x="111"
   inkscape:window-y="183"
   inkscape:window-maximized="0"
   inkscape:current-layer="Capa_1" />
<path
   d="M 71.011,65.667 124.13,12.628 c 1.956,-2.064 4.399,-3.096 7.333,-3.096 2.934,0 5.377,1.033 7.333,3.096 l 6.192,6.111 c 2.01,2.01 3.015,4.453 3.015,7.332 0,2.824 -1.005,5.296 -3.015,7.414 L 105.392,73 l 39.597,39.596 c 2.01,2.01 3.015,4.454 3.015,7.333 0,2.824 -1.005,5.296 -3.015,7.414 l -6.192,6.11 c -2.01,2.01 -4.455,3.015 -7.333,3.015 -2.879,0 -5.324,-1.005 -7.333,-3.015 L 71.011,80.414 c -2.01,-2.118 -3.016,-4.59 -3.016,-7.414 0,-2.879 1.006,-5.323 3.016,-7.333 z"
   id="path3"
   style="fill:#91374b;fill-opacity:1"
   inkscape:connector-curvature="0" />
</svg>