<?xml version="1.0" encoding="UTF-8" standalone="no"?>
<!-- Generator: Adobe Illustrator 16.0.4, SVG Export Plug-In . SVG Version: 6.00 Build 0)  -->

<svg
   xmlns:dc="http://purl.org/dc/elements/1.1/"
   xmlns:cc="http://creativecommons.org/ns#"
   xmlns:rdf="http://www.w3.org/1999/02/22-rdf-syntax-ns#"
   xmlns:svg="http://www.w3.org/2000/svg"
   xmlns="http://www.w3.org/2000/svg"
   xmlns:sodipodi="http://sodipodi.sourceforge.net/DTD/sodipodi-0.dtd"
   xmlns:inkscape="http://www.inkscape.org/namespaces/inkscape"
   version="1.1"
   id="Capa_1"
   x="0px"
   y="0px"
   width="512px"
   height="512px"
   viewBox="0 0 512 512"
   enable-background="new 0 0 512 512"
   xml:space="preserve"
   inkscape:version="0.48.3.1 r9886"
   sodipodi:docname="twitter14.svg"><metadata
   id="metadata9"><rdf:RDF><cc:Work
       rdf:about=""><dc:format>image/svg+xml</dc:format><dc:type
         rdf:resource="http://purl.org/dc/dcmitype/StillImage" /></cc:Work></rdf:RDF></metadata><defs
   id="defs7"><inkscape:path-effect
     effect="spiro"
     id="path-effect2984"
     is_visible="true" /></defs><sodipodi:namedview
   pagecolor="#ffffff"
   bordercolor="#666666"
   borderopacity="1"
   objecttolerance="10"
   gridtolerance="10"
   guidetolerance="10"
   inkscape:pageopacity="0"
   inkscape:pageshadow="2"
   inkscape:window-width="724"
   inkscape:window-height="480"
   id="namedview5"
   showgrid="false"
   inkscape:zoom="0.4609375"
   inkscape:cx="256"
   inkscape:cy="256"
   inkscape:window-x="0"
   inkscape:window-y="32"
   inkscape:window-maximized="0"
   inkscape:current-layer="Capa_1" />
<path
   style="fill:#ffffff;stroke:#000000;stroke-width:1px;stroke-linecap:butt;stroke-linejoin:miter;stroke-opacity:1"
   d="M 26.033898,80.271186 39.050847,425.22034 399.18644,490.30508 488.13559,86.779661 26.033898,80.271186"
   id="path2982"
   inkscape:path-effect="#path-effect2984"
   inkscape:original-d="M 26.033898,80.271186 39.050847,425.22034 399.18644,490.30508 488.13559,86.779661 z"
   inkscape:connector-curvature="0" /><path
   d="M426.671,0H85.343C38.406,0,0,38.405,0,85.345v341.311C0,473.625,38.406,512,85.343,512h341.328  C473.609,512,512,473.625,512,426.655V85.345C512,38.405,473.609,0,426.671,0z M419.026,170.917  c0.164,3.671,0.245,7.364,0.245,11.074c0,113.106-84.608,243.534-239.33,243.534c-47.502,0-91.717-14.175-128.943-38.459  c6.58,0.793,13.276,1.197,20.065,1.197c39.411,0,75.679-13.686,104.467-36.642c-36.808-0.69-67.872-25.438-78.577-59.44  c5.137,1,10.406,1.536,15.826,1.536c7.672,0,15.103-1.048,22.16-3.004c-38.48-7.866-67.475-42.458-67.475-83.928  c0-0.361,0-0.719,0.008-1.076c11.34,6.41,24.312,10.26,38.1,10.705c-22.571-15.349-37.421-41.546-37.421-71.244  c0-15.685,4.147-30.389,11.389-43.029c41.487,51.785,103.468,85.86,173.377,89.431c-1.435-6.266-2.179-12.798-2.179-19.507  c0-47.269,37.664-85.59,84.115-85.59c24.195,0,46.06,10.393,61.401,27.029c19.16-3.838,37.162-10.96,53.416-20.771  c-6.281,19.988-19.617,36.761-36.982,47.355c17.013-2.069,33.226-6.67,48.31-13.477C449.725,143.774,435.463,158.85,419.026,170.917  z"
   id="path3"
   style="fill:#272727;fill-opacity:1" />
</svg>